<svg width="20" height="20" viewBox="0 0 20 20" fill="none" xmlns="http://www.w3.org/2000/svg">
<path d="M1.66699 4.16667L7.50033 1.66667L12.5003 4.16667L17.7528 1.91558C17.9644 1.82493 18.2093 1.92291 18.3 2.13443C18.3222 2.18629 18.3337 2.24213 18.3337 2.29856V15.8333L12.5003 18.3333L7.50033 15.8333L2.24779 18.0844C2.03628 18.1751 1.79133 18.0771 1.70068 17.8656C1.67845 17.8138 1.66699 17.7578 1.66699 17.7014V4.16667ZM13.3337 16.1629L16.667 14.7343V4.19423L13.3337 5.6228V16.1629ZM11.667 16.0533V5.61339L8.33366 3.94673V14.3866L11.667 16.0533ZM6.66699 14.3772V3.83709L3.33366 5.26566V15.8058L6.66699 14.3772Z" fill="#1C1B17"/>
</svg>
